<?xml version="1.0" encoding="UTF-8" standalone="no"?>
<!-- Created with Inkscape (http://www.inkscape.org/) -->

<svg
   xmlns:dc="http://purl.org/dc/elements/1.1/"
   xmlns:cc="http://creativecommons.org/ns#"
   xmlns:rdf="http://www.w3.org/1999/02/22-rdf-syntax-ns#"
   xmlns:svg="http://www.w3.org/2000/svg"
   xmlns="http://www.w3.org/2000/svg"
   xmlns:sodipodi="http://sodipodi.sourceforge.net/DTD/sodipodi-0.dtd"
   xmlns:inkscape="http://www.inkscape.org/namespaces/inkscape"
   width="37.363689mm"
   height="17.491428mm"
   viewBox="0 0 132.39103 61.977502"
   id="svg3489"
   version="1.1"
   inkscape:version="0.91 r13725"
   sodipodi:docname="applegray.svg">
  <defs
     id="defs3491" />
  <sodipodi:namedview
     id="base"
     pagecolor="#ffffff"
     bordercolor="#666666"
     borderopacity="1.0"
     inkscape:pageopacity="0.0"
     inkscape:pageshadow="2"
     inkscape:zoom="0.35"
     inkscape:cx="-187.37589"
     inkscape:cy="-289.01125"
     inkscape:document-units="px"
     inkscape:current-layer="layer1"
     showgrid="false"
     fit-margin-top="0"
     fit-margin-left="0"
     fit-margin-right="0"
     fit-margin-bottom="0"
     inkscape:window-width="1366"
     inkscape:window-height="719"
     inkscape:window-x="0"
     inkscape:window-y="25"
     inkscape:window-maximized="1" />
  <metadata
     id="metadata3494">
    <rdf:RDF>
      <cc:Work
         rdf:about="">
        <dc:format>image/svg+xml</dc:format>
        <dc:type
           rdf:resource="http://purl.org/dc/dcmitype/StillImage" />
        <dc:title></dc:title>
      </cc:Work>
    </rdf:RDF>
  </metadata>
  <g
     inkscape:label="Layer 1"
     inkscape:groupmode="layer"
     id="layer1"
     transform="translate(-233.80446,-181.37345)">
    <g
       transform="matrix(1.25,0,0,-1.25,206.37049,720.89595)"
       id="g3388"
       style="fill:#989997;fill-opacity:1">
      <path
         d="m 44.0617,425.447 c 1.3934,1.633 2.3313,3.908 2.0754,6.171 -2.0086,-0.078 -4.4375,-1.297 -5.8781,-2.929 -1.291,-1.446 -2.4219,-3.761 -2.1168,-5.979 2.2387,-0.168 4.5262,1.102 5.9195,2.737 m 5.0215,-14.363 c 0.0563,-5.85 5.2977,-7.796 5.3555,-7.821 -0.0442,-0.137 -0.8375,-2.774 -2.7614,-5.497 -1.6632,-2.355 -3.389,-4.701 -6.1085,-4.749 -2.6719,-0.048 -3.5309,1.535 -6.5856,1.535 -3.0539,0 -4.0086,-1.487 -6.5379,-1.583 -2.6246,-0.096 -4.6234,2.546 -6.3004,4.892 -3.4265,4.799 -6.0453,13.56 -2.5293,19.474 1.7473,2.937 4.8688,4.797 8.2571,4.845 2.5773,0.047 5.0101,-1.68 6.5859,-1.68 1.5746,0 4.5309,2.077 7.6387,1.772 1.3011,-0.052 4.9531,-0.509 7.2984,-3.834 -0.1891,-0.113 -4.3578,-2.464 -4.3125,-7.354"
         style="fill:#989997;fill-opacity:1;fill-rule:nonzero;stroke:none"
         id="path38"
         inkscape:connector-curvature="0" />
      <path
         d="m 66.741,410.72 c 0.6051,-0.173 1.2813,-0.294 2.0285,-0.364 0.7473,-0.069 1.5481,-0.104 2.402,-0.104 3.2031,0 5.6859,0.73 7.4476,2.19 1.7622,1.46 2.643,3.598 2.643,6.414 0,1.356 -0.2312,2.539 -0.6941,3.547 -0.4625,1.009 -1.1211,1.835 -1.9746,2.477 -0.8539,0.643 -1.8684,1.13 -3.043,1.461 -1.175,0.33 -2.4742,0.496 -3.8984,0.496 -1.1383,0 -2.1172,-0.044 -2.9364,-0.131 -0.8187,-0.087 -1.4769,-0.183 -1.9746,-0.286 l 0,-15.7 z m -2.5109,17.524 c 1.0332,0.174 2.1722,0.33 3.4176,0.469 1.2453,0.139 2.616,0.209 4.1117,0.209 2.1355,0 3.9777,-0.252 5.5261,-0.756 1.5485,-0.504 2.8208,-1.226 3.8168,-2.165 0.8551,-0.834 1.5227,-1.825 2.0028,-2.972 0.4801,-1.148 0.7203,-2.469 0.7203,-3.964 0,-1.808 -0.3293,-3.39 -0.9875,-4.747 -0.6582,-1.355 -1.557,-2.494 -2.6957,-3.415 -1.1391,-0.921 -2.4918,-1.608 -4.0582,-2.06 -1.5664,-0.452 -3.275,-0.678 -5.1262,-0.678 -1.6726,0 -3.0785,0.122 -4.2168,0.365 l 0,-15.021 -2.5109,0 0,34.735"
         style="fill:#989997;fill-opacity:1;fill-rule:nonzero;stroke:none"
         id="path40"
         inkscape:connector-curvature="0" />
      <path
         d="m 101.275,406.913 c -1.3531,0.035 -2.7684,-0.017 -4.2449,-0.156 -1.477,-0.139 -2.8383,-0.444 -4.084,-0.913 -1.2461,-0.47 -2.2785,-1.156 -3.0969,-2.06 -0.8183,-0.905 -1.2277,-2.104 -1.2277,-3.599 0,-1.773 0.516,-3.077 1.548,-3.912 1.0317,-0.834 2.1887,-1.252 3.4703,-1.252 1.0321,0 1.9575,0.14 2.7758,0.418 0.8188,0.279 1.5305,0.653 2.1356,1.122 0.6047,0.469 1.1121,0.999 1.5218,1.59 0.409,0.591 0.721,1.199 0.935,1.825 0.178,0.696 0.267,1.201 0.267,1.514 l 0,5.423 z m 2.51,-7.457 c 0,-1.009 0.017,-2.018 0.053,-3.026 0.035,-1.008 0.142,-1.982 0.32,-2.921 l -2.35,0 -0.373,3.546 -0.107,0 c -0.321,-0.486 -0.73,-0.973 -1.228,-1.46 -0.4984,-0.486 -1.0766,-0.929 -1.7348,-1.329 -0.6582,-0.4 -1.4058,-0.722 -2.2429,-0.965 -0.8368,-0.243 -1.7535,-0.364 -2.7496,-0.364 -1.2457,0 -2.3407,0.199 -3.284,0.599 -0.9434,0.399 -1.7176,0.921 -2.3227,1.564 -0.6051,0.644 -1.059,1.383 -1.3613,2.217 -0.3027,0.834 -0.4539,1.668 -0.4539,2.503 0,2.955 1.2726,5.233 3.8176,6.832 2.5453,1.6 6.3808,2.365 11.5066,2.295 l 0,0.678 c 0,0.661 -0.062,1.417 -0.187,2.27 -0.125,0.851 -0.401,1.66 -0.828,2.425 -0.4264,0.764 -1.0674,1.407 -1.9217,1.928 -0.8543,0.522 -2.0113,0.782 -3.4715,0.782 -1.1023,0 -2.1965,-0.164 -3.2824,-0.494 -1.0856,-0.331 -2.0735,-0.791 -2.9629,-1.382 l -0.8016,1.826 c 1.1395,0.764 2.3141,1.311 3.5242,1.641 1.2102,0.331 2.4735,0.496 3.7903,0.496 1.7801,0 3.2308,-0.295 4.3519,-0.886 1.1207,-0.592 2.0017,-1.356 2.6427,-2.295 0.641,-0.938 1.077,-1.99 1.309,-3.155 0.231,-1.165 0.347,-2.321 0.347,-3.468 l 0,-9.857"
         style="fill:#989997;fill-opacity:1;fill-rule:nonzero;stroke:none"
         id="path42"
         inkscape:connector-curvature="0" />
      <path
         d="m 108.693,418.544 6.513,-16.273 c 0.356,-0.903 0.695,-1.833 1.015,-2.79 0.321,-0.956 0.605,-1.834 0.854,-2.634 l 0.107,0 c 0.249,0.765 0.534,1.626 0.854,2.582 0.321,0.956 0.676,1.939 1.068,2.948 l 6.087,16.167 2.669,0 -7.42,-18.359 c -0.749,-1.947 -1.452,-3.712 -2.11,-5.294 -0.659,-1.582 -1.326,-3.007 -2.002,-4.277 -0.676,-1.269 -1.362,-2.39 -2.056,-3.364 -0.694,-0.973 -1.468,-1.825 -2.323,-2.555 -0.996,-0.869 -1.913,-1.504 -2.749,-1.904 -0.836,-0.4 -1.397,-0.652 -1.682,-0.755 l -0.855,2.034 c 0.641,0.278 1.353,0.643 2.136,1.094 0.783,0.453 1.549,1.044 2.296,1.774 0.641,0.626 1.344,1.451 2.109,2.477 0.766,1.026 1.451,2.269 2.056,3.73 0.214,0.556 0.321,0.921 0.321,1.095 0,0.243 -0.107,0.608 -0.321,1.095 l -9.237,23.209 2.67,0"
         style="fill:#989997;fill-opacity:1;fill-rule:nonzero;stroke:none"
         id="path44"
         inkscape:connector-curvature="0" />
    </g>
  </g>
</svg>
