<?xml version="1.0" encoding="UTF-8" standalone="no"?>
<!-- Created with Inkscape (http://www.inkscape.org/) -->

<svg
   xmlns:dc="http://purl.org/dc/elements/1.1/"
   xmlns:cc="http://creativecommons.org/ns#"
   xmlns:rdf="http://www.w3.org/1999/02/22-rdf-syntax-ns#"
   xmlns:svg="http://www.w3.org/2000/svg"
   xmlns="http://www.w3.org/2000/svg"
   xmlns:sodipodi="http://sodipodi.sourceforge.net/DTD/sodipodi-0.dtd"
   xmlns:inkscape="http://www.inkscape.org/namespaces/inkscape"
   id="svg3411"
   version="1.1"
   inkscape:version="0.91 r13725"
   width="50.613483"
   height="45.477001"
   viewBox="0 0 50.613483 45.477001"
   sodipodi:docname="cart.svg">
  <metadata
     id="metadata3417">
    <rdf:RDF>
      <cc:Work
         rdf:about="">
        <dc:format>image/svg+xml</dc:format>
        <dc:type
           rdf:resource="http://purl.org/dc/dcmitype/StillImage" />
        <dc:title></dc:title>
      </cc:Work>
    </rdf:RDF>
  </metadata>
  <defs
     id="defs3415" />
  <sodipodi:namedview
     pagecolor="#ffffff"
     bordercolor="#666666"
     borderopacity="1"
     objecttolerance="10"
     gridtolerance="10"
     guidetolerance="10"
     inkscape:pageopacity="0"
     inkscape:pageshadow="2"
     inkscape:window-width="1366"
     inkscape:window-height="719"
     id="namedview3413"
     showgrid="false"
     fit-margin-top="0"
     fit-margin-left="0"
     fit-margin-right="0"
     fit-margin-bottom="0"
     inkscape:zoom="2.9864078"
     inkscape:cx="23.018225"
     inkscape:cy="-12.037159"
     inkscape:window-x="0"
     inkscape:window-y="25"
     inkscape:window-maximized="1"
     inkscape:current-layer="svg3411" />
  <g
     transform="translate(-6.693,-9.261)"
     id="g3"
     style="fill:#d6be76;fill-opacity:1">
    <path
       inkscape:connector-curvature="0"
       d="m 56.262,17.837 -29.514,0 c -0.961,0 -1.508,0.743 -1.223,1.661 l 4.669,13.677 c 0.23,0.738 1.044,1.336 1.817,1.336 l 19.35,0 c 0.773,0 1.586,-0.598 1.815,-1.336 l 4.069,-14 c 0.231,-0.738 -0.209,-1.338 -0.983,-1.338 z"
       id="path5"
       style="fill:#d6be76;fill-opacity:1" />
    <circle
       cx="29.417"
       cy="50.266998"
       r="4.415"
       id="circle7"
       style="fill:#d6be76;fill-opacity:1" />
    <circle
       cx="48.098999"
       cy="50.323002"
       r="4.415"
       id="circle9"
       style="fill:#d6be76;fill-opacity:1" />
    <path
       inkscape:connector-curvature="0"
       d="m 53.4,39.004 -25.821,0 -10.337,-29.743 -8.049,0 c -1.381,0 -2.5,1.119 -2.5,2.5 0,1.381 1.119,2.5 2.5,2.5 l 4.493,0 10.337,29.743 29.377,0 c 1.381,0 2.5,-1.119 2.5,-2.5 0,-1.381 -1.119,-2.5 -2.5,-2.5 z"
       id="path11"
       style="fill:#d6be76;fill-opacity:1" />
  </g>
</svg>
