<?xml version="1.0" encoding="UTF-8" standalone="no"?>
<!-- Generator: Adobe Illustrator 19.0.0, SVG Export Plug-In . SVG Version: 6.00 Build 0)  -->

<svg
   xmlns:dc="http://purl.org/dc/elements/1.1/"
   xmlns:cc="http://creativecommons.org/ns#"
   xmlns:rdf="http://www.w3.org/1999/02/22-rdf-syntax-ns#"
   xmlns:svg="http://www.w3.org/2000/svg"
   xmlns="http://www.w3.org/2000/svg"
   xmlns:sodipodi="http://sodipodi.sourceforge.net/DTD/sodipodi-0.dtd"
   xmlns:inkscape="http://www.inkscape.org/namespaces/inkscape"
   version="1.1"
   id="Layer_1"
   x="0px"
   y="0px"
   viewBox="0 0 409.602 409.602"
   style="enable-background:new 0 0 409.602 409.602;"
   xml:space="preserve"
   inkscape:version="0.91 r13725"
   sodipodi:docname="instawhite.svg"><metadata
     id="metadata55"><rdf:RDF><cc:Work
         rdf:about=""><dc:format>image/svg+xml</dc:format><dc:type
           rdf:resource="http://purl.org/dc/dcmitype/StillImage" /><dc:title></dc:title></cc:Work></rdf:RDF></metadata><defs
     id="defs53" /><sodipodi:namedview
     pagecolor="#ffffff"
     bordercolor="#666666"
     borderopacity="1"
     objecttolerance="10"
     gridtolerance="10"
     guidetolerance="10"
     inkscape:pageopacity="0"
     inkscape:pageshadow="2"
     inkscape:window-width="640"
     inkscape:window-height="480"
     id="namedview51"
     showgrid="false"
     inkscape:zoom="0.57616908"
     inkscape:cx="204.80099"
     inkscape:cy="183.06799"
     inkscape:window-x="0"
     inkscape:window-y="25"
     inkscape:window-maximized="0"
     inkscape:current-layer="Layer_1" /><g
     id="g3409"
     style="fill:#ffffff"><g
       id="g5"
       style="fill:#ffffff"><path
         d="M 349.617,59.988 C 310.938,21.305 259.504,0 204.801,0 150.098,0 98.672,21.305 59.988,59.988 21.305,98.672 0,150.098 0,204.801 c 0,54.711 21.305,106.14 59.988,144.82 38.68,38.68 90.11,59.981 144.813,59.981 54.707,0 106.137,-21.301 144.816,-59.981 38.68,-38.68 59.985,-90.109 59.985,-144.82 0,-54.703 -21.305,-106.133 -59.985,-144.813 l 0,0 z m -9.051,280.582 c -36.261,36.262 -84.476,56.231 -135.765,56.231 -51.285,0 -99.5,-19.969 -135.762,-56.231 -36.266,-36.261 -56.238,-84.48 -56.238,-135.769 0,-51.281 19.972,-99.496 56.238,-135.762 36.266,-36.266 84.481,-56.238 135.762,-56.238 51.285,0 99.5,19.972 135.765,56.238 36.262,36.262 56.235,84.477 56.235,135.762 0,51.293 -19.973,99.508 -56.235,135.769 l 0,0 z m 0,0"
         id="path7"
         inkscape:connector-curvature="0"
         style="fill:#ffffff" /></g><g
       transform="matrix(1.1180974,0,0,1.075919,-22.474308,-16.431238)"
       id="g13"
       style="fill:#ffffff"><path
         d="m 258.59,102.125 -107.18,0 c -27.176,0 -49.285,22.11 -49.285,49.286 l 0,107.179 c 0,27.177 22.109,49.286 49.285,49.286 l 107.18,0 c 27.176,0 49.284,-22.109 49.284,-49.286 l 0,-107.179 c 0,-27.176 -22.108,-49.286 -49.284,-49.286 z m 36.308,156.464 c 0,20.02 -16.288,36.309 -36.308,36.309 l -107.18,0 c -20.019,0 -36.305,-16.289 -36.305,-36.309 l 0,-107.178 c 0,-20.019 16.287,-36.305 36.305,-36.305 l 107.18,0 c 20.02,0 36.308,16.287 36.308,36.305 l 0,107.178 z"
         id="path15"
         inkscape:connector-curvature="0"
         style="fill:#ffffff" /><path
         d="m 262.503,139.728 c -4.358,0 -7.904,3.545 -7.904,7.901 0,4.356 3.546,7.9 7.904,7.9 4.356,0 7.9,-3.544 7.9,-7.9 0,-4.356 -3.544,-7.901 -7.9,-7.901 z"
         id="path17"
         inkscape:connector-curvature="0"
         style="fill:#ffffff" /><path
         d="m 204.998,154.57 c -27.806,0 -50.428,22.622 -50.428,50.428 0,27.808 22.622,50.432 50.428,50.432 27.808,0 50.432,-22.624 50.432,-50.432 0,-27.806 -22.624,-50.428 -50.432,-50.428 z m 0,87.884 c -20.652,0 -37.453,-16.803 -37.453,-37.456 0,-20.648 16.801,-37.446 37.453,-37.446 20.65,0 37.449,16.798 37.449,37.446 0.001,20.653 -16.799,37.456 -37.449,37.456 z"
         id="path19"
         inkscape:connector-curvature="0"
         style="fill:#ffffff" /></g></g><g
     id="g21" /><g
     id="g23" /><g
     id="g25" /><g
     id="g27" /><g
     id="g29" /><g
     id="g31" /><g
     id="g33" /><g
     id="g35" /><g
     id="g37" /><g
     id="g39" /><g
     id="g41" /><g
     id="g43" /><g
     id="g45" /><g
     id="g47" /><g
     id="g49" /></svg>