<?xml version="1.0" encoding="UTF-8" standalone="no"?>
<!-- Created with Inkscape (http://www.inkscape.org/) -->

<svg
   xmlns:dc="http://purl.org/dc/elements/1.1/"
   xmlns:cc="http://creativecommons.org/ns#"
   xmlns:rdf="http://www.w3.org/1999/02/22-rdf-syntax-ns#"
   xmlns:svg="http://www.w3.org/2000/svg"
   xmlns="http://www.w3.org/2000/svg"
   xmlns:sodipodi="http://sodipodi.sourceforge.net/DTD/sodipodi-0.dtd"
   xmlns:inkscape="http://www.inkscape.org/namespaces/inkscape"
   id="svg3458"
   version="1.1"
   inkscape:version="0.91 r13725"
   width="276.60001"
   height="122.29999"
   viewBox="0 0 276.60001 122.29999"
   sodipodi:docname="samsungl.svg">
  <metadata
     id="metadata3464">
    <rdf:RDF>
      <cc:Work
         rdf:about="">
        <dc:format>image/svg+xml</dc:format>
        <dc:type
           rdf:resource="http://purl.org/dc/dcmitype/StillImage" />
        <dc:title></dc:title>
      </cc:Work>
    </rdf:RDF>
  </metadata>
  <defs
     id="defs3462" />
  <sodipodi:namedview
     pagecolor="#ffffff"
     bordercolor="#666666"
     borderopacity="1"
     objecttolerance="10"
     gridtolerance="10"
     guidetolerance="10"
     inkscape:pageopacity="0"
     inkscape:pageshadow="2"
     inkscape:window-width="1366"
     inkscape:window-height="719"
     id="namedview3460"
     showgrid="false"
     fit-margin-top="0"
     fit-margin-left="0"
     fit-margin-right="0"
     fit-margin-bottom="0"
     inkscape:zoom="0.125"
     inkscape:cx="-1336.0735"
     inkscape:cy="65.29092"
     inkscape:window-x="0"
     inkscape:window-y="25"
     inkscape:window-maximized="1"
     inkscape:current-layer="layer1" />
  <g
     inkscape:groupmode="layer"
     id="layer1"
     inkscape:label="Layer 1"
     transform="translate(-109.2207,-99.19164)">
    <g
       id="g3342"
       transform="translate(109.2207,93.09164)"
       style="fill:#57a0d3;fill-opacity:1">
      <path
         sodipodi:nodetypes="cccccccccccccccccccccccccccccccccccccccccssccsscccccccccsscccccssccsscccccccccsscccccsccscscsccsccccsccccscscsscscsccscccsscc"
         style="fill:#57a0d3;fill-opacity:1"
         inkscape:connector-curvature="0"
         d="m 228.3,7.7 0.5,31 -0.2,0 -9.1,-31 -14.7,0 0,39.1 9.7,0 -0.5,-32.1 0.2,0 9.8,32.1 14.1,0 0,-39.1 z m -186,0 -7.3,39.5 10.7,0 5.4,-35.9 0.2,0 5.3,35.9 10.6,0 -7.3,-39.5 z m 59.7,0 -4.9,30.2 -0.2,0 -4.8,-30.2 -16.2,0 -0.9,39.5 9.9,0 0.2,-35.5 0.2,0 6.7,35.5 10,0 6.6,-35.5 0.2,0 0.2,35.5 9.9,0 L 118,7.7 Z M 18.4,36 c 0.3,1 0.3,2 0.1,3 -0.3,1.3 -1.2,2.6 -3.9,2.6 -2.5,0 -4,-1.4 -4,-3.6 l 0,-3.9 -10.6,0 0,3 c 0,8.8 6.9,11.5 14.4,11.5 7.2,0 13,-2.4 14,-9 0.4,-2.2 0.4,-4.3 0,-6.5 -1.7,-8.3 -16.7,-10.7 -17.8,-15.4 -0.1,-0.7 -0.1,-1.4 0,-2.1 0.3,-1.3 1.1,-2.7 3.6,-2.7 1.9,-0.2 3.5,1.2 3.7,3 l 0,0.6 0,2.4 9.9,0 0,-2.8 c 0,-8.6 -7.7,-10 -13.3,-10 -7,0 -12.8,2.3 -13.8,8.8 -0.4,1.8 -0.4,3.6 0,5.4 1.6,8.3 15.6,10.6 17.7,15.7 m 128.4,0 c 0.3,0.9 0.3,1.9 0.1,2.9 -0.3,1.3 -1.2,2.6 -3.8,2.6 -2.4,0 -3.9,-1.4 -3.9,-3.5 l 0,-3.8 -10.5,0 0,3 c 0,8.7 6.9,11.3 14.2,11.3 7.1,0 12.9,-2.4 13.8,-8.9 0.4,-2.1 0.4,-4.3 0,-6.4 C 155,25.1 140.1,22.6 139.1,18 c -0.1,-0.7 -0.1,-1.3 0,-2 0.3,-1.3 1.1,-2.6 3.6,-2.6 1.8,-0.2 3.5,1.2 3.6,3 l 0,0.5 0,2.4 9.7,0 0,-2.8 c 0,-8.5 -7.6,-9.9 -13.2,-9.9 -7,0 -12.6,2.3 -13.7,8.7 -0.3,1.7 -0.3,3.5 0.1,5.3 1.7,8 15.6,10.3 17.6,15.4 m 33.2,5.2 c 1.8,0.2 3.4,-1.1 3.8,-2.8 0.1,-0.5 0.1,-1 0.1,-1.5 l 0,-29.2 10,0 0,28.3 c 0,0.7 -0.1,2.2 -0.1,2.6 -0.7,7.4 -6.5,9.8 -13.8,9.8 -7.3,0 -13.1,-2.4 -13.8,-9.8 0,-0.4 -0.1,-1.9 -0.1,-2.6 l 0,-28.3 10,0 0,29.2 c 0,0.5 0,1 0.1,1.5 0.4,1.8 2,3 3.8,2.8 m 82.4,-0.4 c 2.9,0 3.9,-1.8 4,-2.8 0.1,-0.5 0.1,-1 0.1,-1.5 l 0,-5.7 -4,0 0,-5.8 14,0 0,10.6 c 0,0.7 0,1.3 -0.1,2.6 -0.6,7.2 -6.9,9.8 -13.9,9.8 -7,0 -13.2,-2.6 -13.9,-9.8 -0.1,-1.3 -0.1,-1.9 -0.1,-2.6 l 0,-16.7 c 0,-0.9 0.1,-1.7 0.2,-2.6 0.9,-7.4 6.9,-9.8 13.9,-9.8 7,0 13.1,2.3 13.9,9.8 0.1,0.9 0.1,1.7 0.1,2.6 l 0,1.3 -10,0 0,-2.2 c 0,-0.5 0,-1 -0.1,-1.5 -0.2,-0.9 -0.9,-2.9 -4,-2.9 -1.9,-0.2 -3.5,1.1 -3.9,2.9 -0.1,0.6 -0.2,1.2 -0.2,1.9 l 0,18.1 c 0,0.5 0,1 0.1,1.5 0,1 1,2.8 3.9,2.8"
         class="st0"
         id="Samsung_Pay" />
      <path
         sodipodi:nodetypes="ccssscccccsssssscccccccsssssssccccccccc"
         style="fill:#57a0d3;fill-opacity:1"
         inkscape:connector-curvature="0"
         id="path3340"
         class="st0"
         d="m 153.02677,64.299987 0,3.8 c -3.9,-3.2 -8.8,-5 -13.9,-5 -12.6,0 -22.9,11 -22.9,24.499999 0,13.500004 10.2,24.500004 22.9,24.500004 5.1,0 10,-1.8 13.9,-5 l 0,4.2 10.5,0 0,-47.000003 z m -12.7,38.600003 c -7.6,0 -13.8,-6.800004 -13.8,-15.300004 0,-8.499999 6.2,-15.199999 13.8,-15.199999 7.6,0 13.8,6.8 13.8,15.299999 0,8.5 -6.2,15.200004 -13.8,15.200004 z M 87.426775,63.099987 c -5.1,0 -10.1,1.8 -14,5.2 l 0,-4 -10.6,0 0,64.100003 10.5,0 0,-21.4 c 3.9,3.3 8.9,5.1 14,5.2 12.6,0 22.899995,-11 22.899995,-24.500004 0,-13.499999 -10.09999,-24.599999 -22.799995,-24.599999 z m -1.2,39.800003 c -7.6,0 -13.8,-6.800004 -13.8,-15.300004 0,-8.499999 6.2,-15.299999 13.8,-15.299999 7.6,0 13.800005,6.8 13.800005,15.299999 0,8.5 -6.200005,15.300004 -13.800005,15.300004 z m 121.999995,-38.600003 -13.5,31.999999 -14.4,-31.999999 -10.4,0 19.8,44.000003 -8.5,20.1 10.3,0 27,-64.100003 z" />
    </g>
  </g>
</svg>
