<?xml version="1.0" encoding="UTF-8" standalone="no"?>
<!-- Created with Inkscape (http://www.inkscape.org/) -->

<svg
   xmlns:dc="http://purl.org/dc/elements/1.1/"
   xmlns:cc="http://creativecommons.org/ns#"
   xmlns:rdf="http://www.w3.org/1999/02/22-rdf-syntax-ns#"
   xmlns:svg="http://www.w3.org/2000/svg"
   xmlns="http://www.w3.org/2000/svg"
   xmlns:sodipodi="http://sodipodi.sourceforge.net/DTD/sodipodi-0.dtd"
   xmlns:inkscape="http://www.inkscape.org/namespaces/inkscape"
   id="svg4488"
   version="1.1"
   inkscape:version="0.91 r13725"
   width="188.48701"
   height="210.36339"
   viewBox="0 0 188.48701 210.36339"
   sodipodi:docname="toltol.svg">
  <metadata
     id="metadata4494">
    <rdf:RDF>
      <cc:Work
         rdf:about="">
        <dc:format>image/svg+xml</dc:format>
        <dc:type
           rdf:resource="http://purl.org/dc/dcmitype/StillImage" />
        <dc:title></dc:title>
      </cc:Work>
    </rdf:RDF>
  </metadata>
  <defs
     id="defs4492" />
  <sodipodi:namedview
     pagecolor="#ffffff"
     bordercolor="#666666"
     borderopacity="1"
     objecttolerance="10"
     gridtolerance="10"
     guidetolerance="10"
     inkscape:pageopacity="0"
     inkscape:pageshadow="2"
     inkscape:window-width="1366"
     inkscape:window-height="719"
     id="namedview4490"
     showgrid="false"
     fit-margin-top="0"
     fit-margin-left="0"
     fit-margin-right="0"
     fit-margin-bottom="0"
     inkscape:zoom="1"
     inkscape:cx="-0.12805356"
     inkscape:cy="79.269783"
     inkscape:window-x="0"
     inkscape:window-y="25"
     inkscape:window-maximized="1"
     inkscape:current-layer="svg4488" />
  <g
     inkscape:groupmode="layer"
     id="layer4"
     inkscape:label="Layer 1"
     transform="translate(-382.7565,-64.943306)">
    <g
       transform="translate(352.05165,49.85856)"
       id="g4519"
       style="fill:#999998;fill-opacity:1">
      <rect
         y="50.096268"
         x="156.08408"
         height="2.4344258"
         width="63.107773"
         id="rect3537-4"
         style="fill:#999998;fill-opacity:1;stroke:#0097fe;stroke-width:0;stroke-miterlimit:4;stroke-dasharray:none;stroke-opacity:1" />
      <rect
         y="50.052967"
         x="217.02861"
         height="132.41525"
         width="2.118644"
         id="rect4355-5"
         style="fill:#999998;fill-opacity:1;stroke:#0097fe;stroke-width:0;stroke-miterlimit:4;stroke-dasharray:none;stroke-opacity:1" />
      <rect
         y="207.11667"
         x="60.298832"
         height="2.2471621"
         width="63.107777"
         id="rect4376"
         style="fill:#999998;fill-opacity:1;stroke:#0097fe;stroke-width:0;stroke-miterlimit:4;stroke-dasharray:none;stroke-opacity:1" />
      <path
         sodipodi:nodetypes="ccccccccccccccccccssssscssccccccccsscccsscccccccsssssscscscccccccccccccsssscssssssscsccccccccc"
         inkscape:connector-curvature="0"
         id="path3516-8"
         d="m 62.94492,206.33475 c -41.96328,29.11017 -20.98164,14.55508 0,0 z m 91.25,3.75 c -102.796613,26.61017 -51.39831,13.30508 0,0 z m 10,-15 c -109.46328,36.61017 -54.73164,18.30508 0,0 z m 19.72186,15 c -122.611187,26.61017 -61.30559,13.30508 0,0 z m 1.71298,-12.27444 c -123.753173,34.79313 -61.87659,17.39656 0,0 z m 13.56516,-2.72556 c -132.796613,36.61017 -66.39831,18.30508 0,0 z m 8.31874,12.71407 c -138.34244,28.13412 -69.17122,14.06706 0,0 z m -68.00624,0.80263 c -93.004947,27.59903 -46.502473,13.79952 0,0 z m -59.0625,-71.51171 0,-56.745007 -16.5625,9.296423 c -17.64012,9.901282 -20.1749,10.452984 -26.54492,5.777562 -4.3993,-3.228975 -7.40836,-9.358769 -6.45628,-13.15218 0.90555,-3.608003 6.42321,-6.800951 41.65809,-24.106642 33.42801,-16.41824 95.69997,-43.07515 100.62585,-43.07515 4.97165,0 5.04292,10.458353 0.10287,15.09936 -1.20895,1.135801 -14.01061,8.124011 -28.44811,15.529356 -14.4375,7.405344 -32.85937,17.08285 -40.9375,21.505568 l -14.6875,8.041305 0,59.287215 0,59.2872 -4.375,0 -4.375,0 z m 34.73154,27.37103 0.35654,-29.37602 -9.41904,0 c -9.21365,0 -9.41904,-0.0682 -9.41904,-3.125 l 0,-3.125 22.5,0 22.5,0 0,3.125 c 0,3.05555 -0.20834,3.125 -9.375,3.125 l -9.375,0 0,29.375 0,29.375 -4.0625,10e-4 -4.0625,0.001 0.35654,-29.37603 z m 31.89887,15.75152 c -5.5007,-3.45388 -7.82904,-7.44918 -8.71867,-14.96087 -1.47234,-12.43151 5.38572,-22.00556 16.86597,-23.54538 11.50431,-1.54305 20.21448,5.72807 21.2076,17.7038 0.68823,8.2992 -1.2091,14.224 -6.03589,18.84837 -5.04027,4.82889 -17.12741,5.84176 -23.31901,1.95408 z m 17.38295,-4.33166 c 7.09541,-5.39074 6.04328,-23.76319 -1.58681,-27.70885 -4.48355,-2.31854 -6.63679,-2.30963 -11.19269,0.0464 -6.97952,3.60925 -8.1137,20.10045 -1.81555,26.3986 3.35581,3.35581 10.97338,4.01549 14.59505,1.26393 z m 27.23664,-51.42088 0,-58.125004 3.75,0 3.75,0 0,58.125004 0,58.125 -3.75,0 -3.75,0 z m 26.5625,58.12526 c -145.504947,44.94333 -72.75247,22.47166 0,0 z M 117.18925,117.48339 c -8.66708,-2.51455 -13.99665,-12.56511 -12.49039,-23.554502 0.92798,-6.770362 3.3591,-10.687423 8.62648,-13.899146 4.9003,-2.987903 15.65291,-3.267642 20.91939,-0.544237 5.09988,2.637246 8.70064,10.238427 8.69825,18.361943 -0.002,9.124752 -3.05327,14.696772 -9.95042,18.174802 -5.89058,2.97045 -9.46272,3.30073 -15.80331,1.46114 z m 11.42877,-5.46318 c 4.95565,-2.0706 6.8269,-5.82721 6.8269,-13.705312 0,-11.400827 -4.10008,-16.259714 -13.08506,-15.506717 -6.94111,0.581709 -9.66494,4.746121 -9.66494,14.776567 0,8.713332 2.57586,13.679232 7.86269,15.158142 1.65677,0.46346 3.171,0.89873 3.36496,0.96726 0.19395,0.0685 2.30691,-0.69194 4.69545,-1.68994 z m 29.3269,-20.060464 0,-25.625 4.375,0 4.375,0 0,25.625 0,25.625004 -4.375,0 -4.375,0 z"
         style="fill:#999998;fill-opacity:1" />
      <text
         transform="scale(0.92405489,1.0821868)"
         sodipodi:linespacing="100%"
         id="text3518-5"
         y="193.04204"
         x="146.0506"
         style="font-style:normal;font-weight:normal;font-size:16.90196228px;line-height:100%;font-family:sans-serif;letter-spacing:0px;word-spacing:0px;fill:#999998;fill-opacity:1;stroke:none;stroke-width:1px;stroke-linecap:butt;stroke-linejoin:miter;stroke-opacity:1"
         xml:space="preserve"><tspan
           y="193.04204"
           x="146.0506"
           id="tspan3526-7"
           sodipodi:role="line">S T U D I O</tspan></text>
      <rect
         ry="0"
         y="104.30904"
         x="60.453968"
         height="104.86754"
         width="1.9823314"
         id="rect4378-3"
         style="fill:#999998;fill-opacity:1;stroke:#0097fe;stroke-width:0;stroke-miterlimit:4;stroke-dasharray:none;stroke-opacity:1" />
    </g>
  </g>
</svg>
